<?xml version="1.0" encoding="utf-8"?>
<!-- Generator: Adobe Illustrator 21.0.0, SVG Export Plug-In . SVG Version: 6.00 Build 0)  -->
<svg version="1.1" id="Layer_1" xmlns="http://www.w3.org/2000/svg" xmlns:xlink="http://www.w3.org/1999/xlink" x="0px" y="0px"
	 viewBox="0 0 63.9 63.9" style="enable-background:new 0 0 63.9 63.9;" xml:space="preserve">
<style type="text/css">
	.st0{clip-path:url(#SVGID_2_);}
	.st1{clip-path:url(#SVGID_4_);}
	.st2{clip-path:url(#SVGID_6_);}
	.st3{clip-path:url(#SVGID_8_);}
</style>
<g>
	<defs>
		<path id="SVGID_1_" d="M32.4,3.1C16.8,3.1,4.1,15.7,3.9,31.3v28.8h29.3c15.4-0.4,27.7-13,27.7-28.5C60.9,15.8,48.2,3.1,32.4,3.1z
			 M32.4,6.3c14,0,25.3,11.3,25.3,25.3c0,6.6-2.5,12.9-7.2,17.7c-4.6,4.8-10.8,7.5-17.4,7.7H7V31.4C7.2,17.5,18.6,6.3,32.4,6.3z"/>
	</defs>
	<clipPath id="SVGID_2_">
		<use xlink:href="#SVGID_1_"  style="overflow:visible;"/>
	</clipPath>
	<g class="st0">
		<defs>
			<rect id="SVGID_3_" x="-488.1" y="-126.9" width="1040" height="1977"/>
		</defs>
		<clipPath id="SVGID_4_">
			<use xlink:href="#SVGID_3_"  style="overflow:visible;"/>
		</clipPath>
		<rect x="-1.1" y="-1.9" class="st1" width="67" height="67"/>
	</g>
</g>
<g>
	<defs>
		<path id="SVGID_5_" d="M34.9,15.8V21h-6.1v-5.2H34.9z M35.1,42.7h3.4v3.6H26.1v-3.6h3.4V28.2h-3.4v-3.6h9V42.7z"/>
	</defs>
	<clipPath id="SVGID_6_">
		<use xlink:href="#SVGID_5_"  style="overflow:visible;"/>
	</clipPath>
	<g class="st2">
		<defs>
			<rect id="SVGID_7_" x="-488.1" y="-126.9" width="1040" height="1977"/>
		</defs>
		<clipPath id="SVGID_8_">
			<use xlink:href="#SVGID_7_"  style="overflow:visible;"/>
		</clipPath>
		<rect x="21.1" y="10.8" class="st3" width="22.4" height="40.6"/>
	</g>
</g>
</svg>
