<?xml version="1.0" encoding="utf-8"?>
<!-- Generator: Adobe Illustrator 21.0.0, SVG Export Plug-In . SVG Version: 6.00 Build 0)  -->
<svg version="1.1" id="Capa_1" xmlns="http://www.w3.org/2000/svg" xmlns:xlink="http://www.w3.org/1999/xlink" x="0px" y="0px"
	 viewBox="0 0 512 512" style="enable-background:new 0 0 512 512;" xml:space="preserve">
<style type="text/css">
	.st0{fill:#333333;}
</style>
<g>
	<g>
		<path class="st0" d="M470,244.1c-0.2-0.3-0.3-0.7-0.5-1L435,180l1.7-1.7c12.6-12.6,12.6-33.1,0-45.7L313.7,9.4
			C301-3.1,280.6-3.1,268,9.4L235,42.4H69.1c-16.8,0-30.5,13.7-30.5,30.5v286.8c0,16.8,13.7,30.5,30.5,30.5h4.3v13.9
			c0.1,38,13,74.9,36.7,104.6c3,3.8,8.5,4.4,12.2,1.4s4.4-8.5,1.4-12.2c-21.2-26.6-32.8-59.7-32.9-93.7v-13.9h34.8v60.9
			c0,4.8,3.9,8.7,8.7,8.7s8.7-3.9,8.7-8.7V348.9c0-9.6,7.8-17.4,17.4-17.4s17.4,7.8,17.4,17.4V425c0,2.3,0.9,4.5,2.5,6.1l4,4
			c18.1,18,28.3,42.5,28.2,68.1c0,4.8,3.9,8.7,8.7,8.7s8.7-3.9,8.7-8.7c0-18.9-4.7-37.6-13.7-54.2c12.7-17.2,20.4-37.6,22.1-58.9
			h13.3c12.6,0,23.9-7.8,28.4-19.6l175.7-83.6C471.5,279.2,477.9,259.9,470,244.1z M205.9,433.5c-2.9-3.7-5.9-7.2-9.2-10.6l-1.5-1.5
			v-31.2h25.7C219.4,405.6,214.2,420.5,205.9,433.5z M264.7,359.7c0,7.2-5.9,13.1-13.1,13.1h-56.4v-24c0-19.2-15.6-34.8-34.8-34.8
			s-34.8,15.6-34.8,34.8v24H69.1c-7.2,0-13.1-5.9-13.1-13.1V72.9c0-7.2,5.9-13.1,13.1-13.1h182.4c7.2,0,13.1,5.9,13.1,13.1V359.7z
			 M258.7,43.3l21.6-21.6c5.8-5.8,15.3-5.8,21.1,0l123.1,123.1c5.8,5.8,5.8,15.3,0,21.1L282.1,308.4V189.7l56.4,0.6h0.3
			c19.6,0,35.5-15.9,35.5-35.5c0-17.5-12.8-32.5-30.2-35.1l-7.1-1.1l-0.9-7.1c-2.5-19.4-20.3-33.1-39.7-30.6
			c-5.1,0.7-9.9,2.4-14.3,5.1v-13C282.1,58.8,272.4,46.6,258.7,43.3z M282.2,172.3l0.6-56.4c0.1-8.3,5.8-15.5,13.9-17.5
			c9.8-2.3,19.5,3.7,21.9,13.4c0.1,0.6,0.3,1.2,0.3,1.8l1.8,13.6c0.5,3.8,3.5,6.9,7.3,7.5l13.6,2.1c9.9,1.5,16.7,10.8,15.2,20.7
			c-0.1,0.6-0.2,1.2-0.4,1.8c-2.2,8-9.5,13.5-17.7,13.6L282.2,172.3z M448.3,271.3c-0.1,0-0.2,0.1-0.3,0.1l-165.9,79V333
			l140.1-140.2l32,58.6C458.1,258.5,455.4,267.4,448.3,271.3z"/>
	</g>
</g>
<g>
	<g>
		<path class="st0" d="M214.4,193.7l-52.2-69.6c-3.2-3.8-8.8-4.4-12.7-1.2c-0.5,0.4-0.9,0.8-1.2,1.2l-52.2,69.6
			c-2.3,3.1-2.3,7.3,0,10.4l52.2,69.6c2.9,3.8,8.3,4.6,12.2,1.7c0.7-0.5,1.2-1.1,1.7-1.7l52.2-69.6
			C216.7,201,216.7,196.8,214.4,193.7z M155.3,254L114,198.9l41.3-55.1l41.3,55.1L155.3,254z"/>
	</g>
</g>
<g>
	<g>
		
			<rect x="79.6" y="83.3" transform="matrix(0.7071 -0.7071 0.7071 0.7071 -39.2077 89.3513)" class="st0" width="17.4" height="17.4"/>
	</g>
</g>
<g>
	<g>
		
			<rect x="223.8" y="331.9" transform="matrix(0.7071 -0.7071 0.7071 0.7071 -172.7431 264.1519)" class="st0" width="17.4" height="17.4"/>
	</g>
</g>
</svg>
