<svg xmlns="http://www.w3.org/2000/svg" xmlns:xlink="http://www.w3.org/1999/xlink" viewBox="0 0 13 18.75" version="1.1" x="0px" y="0px"><title>032-Arrow</title><desc>Created with Sketch.</desc><g stroke="none" stroke-width="1" fill="none" fill-rule="evenodd"><g fill="#000000"><path d="M6.6667,8.1752 L12.3937,2.2952 C12.7747,1.9032 12.7707,1.2792 12.3847,0.8932 L12.3847,0.8932 C11.9897,0.4982 11.3487,0.5042 10.9617,0.9052 L6.6667,5.3472 L2.3717,0.9052 C1.9847,0.5042 1.3437,0.4982 0.9487,0.8932 L0.9487,0.8932 C0.5627,1.2792 0.5587,1.9032 0.9397,2.2952 L6.6667,8.1752 Z"/><path d="M12.3843,6.8928 C11.9903,6.4988 11.3493,6.5038 10.9613,6.9048 L6.6663,11.3468 L2.3723,6.9048 C1.9843,6.5038 1.3433,6.4988 0.9493,6.8928 L0.9493,6.8928 C0.5633,7.2788 0.5583,7.9038 0.9393,8.2948 L6.6663,14.1748 L12.3933,8.2948 C12.7743,7.9038 12.7703,7.2788 12.3843,6.8928 L12.3843,6.8928 Z"/></g></g><text x="0" y="30" fill="#000000" font-size="5px" font-weight="bold" font-family="'Helvetica Neue', Helvetica, Arial-Unicode, Arial, Sans-serif">Created by Creaticca Creative Agency</text><text x="0" y="35" fill="#000000" font-size="5px" font-weight="bold" font-family="'Helvetica Neue', Helvetica, Arial-Unicode, Arial, Sans-serif">from the Noun Project</text></svg>