<?xml version="1.0" encoding="utf-8"?>
<!-- Generator: Adobe Illustrator 21.0.0, SVG Export Plug-In . SVG Version: 6.00 Build 0)  -->
<svg version="1.1" id="Capa_1" xmlns="http://www.w3.org/2000/svg" xmlns:xlink="http://www.w3.org/1999/xlink" x="0px" y="0px"
	 viewBox="0 0 512 512" style="enable-background:new 0 0 512 512;" xml:space="preserve">
<style type="text/css">
	.st0{fill:#333333;}
</style>
<path class="st0" d="M446,391.5h-25.7v-22.4c6.8-3.4,13-7.9,18.6-13.4c5.1-5.1,9.3-10.9,12.7-17.2c29.5-20.7,47-54.2,47-90.3
	c0-29.2-11.6-55.6-32.7-74.4c-13.6-12.1-30.4-20.6-49-24.8c4.2-5.8,6.7-12.9,6.7-20.6c0-19.4-15.8-35.1-35.1-35.1
	c-19.4,0-35.1,15.8-35.1,35.1c0,7.7,2.5,14.8,6.7,20.6c-18.6,4.3-35.4,12.7-49,24.8c-21.1,18.8-32.7,45.2-32.7,74.4
	c0,36.1,17.5,69.6,47,90.3c7,13.3,18.1,23.9,31.2,30.5v22.5h-25.7c-22.6,0-42.6,11.4-54.5,28.8c-12.3-24.8-37.8-41.9-67.4-41.9H176
	v-23.9c25.6-11.9,44.1-36.7,46.9-66c18.4-1.5,33-17,33-35.8c0-9.6-3.7-18.6-10.5-25.4c-1.9-1.9-3.9-3.5-6-4.9
	c2.9-4.7,4.6-10.3,4.6-16.2c0-9.7-4.6-18.7-12.1-24.4c0.2-1.4,0.3-2.8,0.3-4.2c0-16.9-13.7-30.6-30.6-30.6c-5.3,0-10.5,1.4-15.1,4
	c-5.3-3.5-11-6.3-17-8.5c-8.8-3.2-18-4.8-27.5-4.8c-15.7,0-30.7,4.4-43.7,12.8c-4.4-2.3-9.2-3.5-14.3-3.5
	c-16.9,0-30.6,13.7-30.6,30.6c0,1.4,0.1,2.8,0.3,4.2c-7.5,5.7-12.1,14.6-12.1,24.4c0,5.6,1.5,10.9,4.2,15.5
	c-10.6,6.3-17.7,17.8-17.7,31c0,9.6,3.7,18.6,10.5,25.4c6.1,6.1,14,9.7,22.5,10.4c1.8,18.8,9.9,36.2,23.4,49.7
	c6.9,6.9,14.9,12.4,23.5,16.4v23.8H75.1C33.7,378.4,0,412.1,0,453.5v28.8c0,5.5,4.5,10,10,10h264c0.1,0,0.3,0,0.4,0
	c0.1,0,0.3,0,0.4,0H502c5.5,0,10-4.5,10-10v-24.8C512,421.1,482.4,391.5,446,391.5z M223.3,268.2v-31c3,0.6,5.7,2.1,7.9,4.3
	c3,3,4.6,7,4.6,11.2C235.9,260.3,230.5,266.7,223.3,268.2z M212.2,177.7c0,1.6-0.4,3.2-1.1,4.6c-1.3,2.6-1.4,5.6-0.3,8.3
	c1.1,2.7,3.3,4.7,6,5.7c4.2,1.5,7.1,5.5,7.1,10c0,5.5-4.2,10-9.6,10.5h-1c-0.2,0-0.4,0-0.6,0c-5.5-0.3-9.9-4.9-9.9-10.5
	c0-1.6,0.4-3.2,1.1-4.6c1.3-2.6,1.4-5.6,0.3-8.2c-1.1-2.7-3.3-4.7-6-5.7c-4.3-1.5-7.1-5.5-7.1-10c0-2.7,1-5.2,2.8-7.2c0,0,0,0,0,0
	c0,0,0-0.1,0.1-0.1c2-2.1,4.7-3.3,7.6-3.3C207.4,167.2,212.2,171.9,212.2,177.7z M68.8,196.3c2.7-0.9,4.9-3,6-5.7
	c1.1-2.7,1-5.7-0.3-8.3c-0.7-1.4-1.1-3-1.1-4.6c0-5.8,4.7-10.6,10.6-10.6c2.7,0,5.3,1,7.3,3c0,0,0,0,0,0c2.1,2,3.2,4.7,3.2,7.6
	c0,4.5-2.9,8.5-7.1,10c-2.7,0.9-4.9,3-6,5.7c-1.1,2.7-1,5.7,0.3,8.3c0.7,1.4,1.1,3,1.1,4.6c0,5.8-4.7,10.6-10.6,10.6
	c-0.2,0-0.5,0-0.7,0c0,0-0.1,0-0.1,0c-5.5-0.4-9.8-5-9.8-10.5C61.7,201.8,64.5,197.8,68.8,196.3z M48.2,252.7
	c0-7.6,5.4-14,12.5-15.5v31c-3-0.6-5.7-2.1-7.9-4.3C49.8,260.9,48.2,256.9,48.2,252.7z M80.8,280.7v-2.1v-42.9
	c12.7-3.7,22.1-15.5,22.1-29.4c0-1.4-0.1-2.8-0.3-4.2c7.4-5.7,12-14.6,12-24.4c0-4.2-0.9-8.3-2.5-12c9.1-5.1,19.2-7.8,29.9-7.8
	c7.1,0,14.1,1.2,20.7,3.6c3.6,1.3,7.1,2.9,10.4,4.9c-1.4,3.6-2.2,7.4-2.2,11.3c0,9.7,4.6,18.7,12,24.4c-0.2,1.4-0.3,2.8-0.3,4.2
	c0,13.3,8.6,24.7,20.5,28.9v43.4v2.1c0,33.8-27.5,61.2-61.2,61.2c-16.4,0-31.7-6.4-43.3-17.9C87.1,312.4,80.8,297,80.8,280.7z
	 M128.1,362h27.9v16.4h-27.9V362z M264,472.3H20.1v-18.8c0-30.3,24.7-55,55-55h133.8c30.3,0,55,24.7,55,55V472.3z M388.4,113.4
	c8.3,0,15.1,6.8,15.1,15.1c0,8.3-6.8,15.1-15.1,15.1c-8.3,0-15.1-6.8-15.1-15.1S380.1,113.4,388.4,113.4z M298.3,248.2
	c0-47.7,37.9-82.3,90.1-82.3c52.2,0,90.1,34.6,90.1,82.3c0,20.2-6.7,39.4-18.7,55v-50.9c0-2.7-0.2-5.4-0.5-8.1
	c-0.5-4.5-3.9-8.1-8.4-8.8c-11-1.8-20.6-8.3-26.3-17.9c-1.8-3-5.1-4.9-8.6-4.9s-6.8,1.9-8.6,4.9c-6.9,11.5-19,18.4-32.5,18.4
	c-13.1,0-25.1-6.7-32.1-17.8c-1.9-3-5.2-4.8-8.9-4.7c-3.6,0.1-6.8,2.1-8.5,5.3c-5.5,10.3-8.4,22-8.4,33.7v50.9
	C305,287.7,298.3,268.4,298.3,248.2z M342.1,327.4c-3.3-6.9-5-14.4-5-22.1v-52.9c0-3.2,0.3-6.4,0.9-9.6
	c10.2,8.5,23.2,13.3,36.9,13.3c15.5,0,30.3-6.3,41.1-17.1c6.6,6.7,14.7,11.6,23.7,14.4v51.9c0,7.8-1.7,15.2-5,22.1
	c-2.5,5.3-5.9,10-10,14.1c-9.7,9.7-22.6,15-36.3,15C368.8,356.5,350.6,345.1,342.1,327.4z M376.6,376.6h23.7v14.9h-23.7V376.6z
	 M491.9,472.3h-207v-14.7c0-25.3,20.6-45.9,45.9-45.9H446c25.3,0,45.9,20.6,45.9,45.9L491.9,472.3L491.9,472.3z"/>
<path class="st0" d="M440.7,441.7h-56.2c-5.5,0-10,4.5-10,10c0,5.5,4.5,10,10,10h56.2c5.5,0,10-4.5,10-10
	C450.7,446.2,446.2,441.7,440.7,441.7z"/>
<path class="st0" d="M472.8,461.8c12.9,0,12.9-20.1,0-20.1C459.9,441.7,459.9,461.8,472.8,461.8z"/>
</svg>
