<?xml version="1.0" encoding="iso-8859-1"?>
<!-- Generator: Adobe Illustrator 19.0.0, SVG Export Plug-In . SVG Version: 6.00 Build 0)  -->
<svg version="1.1" id="Capa_1" xmlns="http://www.w3.org/2000/svg" xmlns:xlink="http://www.w3.org/1999/xlink" x="0px" y="0px"
	 viewBox="-49 141 512 512" style="enable-background:new -49 141 512 512;" xml:space="preserve">
<path style="fill:#FFFFFF;" d="M396.982,532.499h-25.67v-22.417c6.772-3.392,13.038-7.872,18.553-13.382
	c5.084-5.084,9.336-10.856,12.677-17.186c29.481-20.653,47.005-54.188,47.005-90.266c0-29.159-11.605-55.577-32.677-74.387
	c-13.558-12.102-30.401-20.551-48.995-24.808c4.189-5.787,6.669-12.888,6.669-20.562c0-19.381-15.767-35.147-35.147-35.147
	c-19.381,0-35.147,15.768-35.147,35.147c0,7.674,2.479,14.776,6.669,20.562c-18.598,4.257-35.443,12.706-49.003,24.808
	c-21.072,18.809-32.679,45.228-32.679,74.388c0,36.074,17.526,69.609,47.014,90.265c7.042,13.322,18.101,23.888,31.231,30.479
	v22.506h-25.67c-22.624,0-42.622,11.445-54.522,28.844c-12.269-24.819-37.844-41.935-67.353-41.935h-32.919v-23.903
	c25.645-11.857,44.113-36.674,46.93-66.009c18.436-1.506,32.982-16.976,32.982-35.789c0-9.588-3.734-18.61-10.527-25.418
	c-1.856-1.852-3.884-3.469-6.04-4.853c2.94-4.71,4.641-10.257,4.641-16.161c0-9.728-4.602-18.668-12.053-24.357
	c0.19-1.382,0.287-2.778,0.287-4.174c0-16.895-13.745-30.64-30.641-30.64c-5.326,0-10.541,1.417-15.124,4.015
	c-5.329-3.489-11.02-6.34-17.006-8.482c-8.779-3.158-18.015-4.76-27.452-4.76c-15.721,0-30.691,4.395-43.729,12.755
	c-4.357-2.303-9.237-3.529-14.288-3.529c-16.894,0-30.64,13.745-30.64,30.64c0,1.396,0.097,2.792,0.287,4.174
	c-7.451,5.689-12.054,14.63-12.054,24.358c0,5.614,1.544,10.909,4.231,15.468c-10.6,6.254-17.732,17.788-17.732,30.963
	c0,9.588,3.74,18.61,10.522,25.392c6.077,6.09,13.965,9.715,22.46,10.4c1.781,18.768,9.943,36.178,23.44,49.675
	c6.917,6.912,14.866,12.413,23.49,16.386v23.848H26.093C-15.313,519.407-49,553.094-49,594.5v28.803
	c0,5.545,4.496,10.039,10.039,10.039H224.99c0.143,0,0.281-0.015,0.422-0.021c0.141,0.006,0.279,0.021,0.422,0.021h227.127
	c5.544,0,10.039-4.495,10.039-10.039v-24.787C463,562.115,433.384,532.499,396.982,532.499z M174.332,409.197v-30.992
	c2.963,0.63,5.684,2.099,7.873,4.283c2.996,3.003,4.646,6.987,4.646,11.221C186.851,401.3,181.477,407.663,174.332,409.197z
	 M163.159,318.744c0,1.637-0.357,3.195-1.065,4.63c-1.273,2.584-1.374,5.59-0.279,8.254c1.096,2.663,3.283,4.728,6.004,5.67
	c4.25,1.469,7.105,5.479,7.105,9.978c0,5.457-4.198,10.027-9.591,10.501h-1.04c-0.187,0-0.369,0.018-0.554,0.028
	c-5.53-0.328-9.937-4.925-9.937-10.529c0-1.62,0.362-3.183,1.077-4.645c1.263-2.582,1.358-5.582,0.262-8.239
	c-1.096-2.657-3.28-4.717-5.995-5.658c-4.253-1.472-7.11-5.486-7.11-9.99c0-2.674,1.005-5.221,2.811-7.172
	c0.012-0.013,0.026-0.024,0.039-0.037c0.023-0.024,0.042-0.051,0.065-0.075c2.023-2.112,4.734-3.278,7.646-3.278
	C158.42,308.183,163.159,312.921,163.159,318.744z M19.777,337.298c2.723-0.942,4.909-3.007,6.004-5.67
	c1.095-2.664,0.993-5.67-0.279-8.254c-0.707-1.435-1.065-2.992-1.065-4.63c0-5.824,4.738-10.561,10.561-10.561
	c2.746,0,5.345,1.047,7.317,2.95c0.004,0.004,0.008,0.007,0.012,0.011c2.085,2.005,3.234,4.703,3.234,7.601
	c0,4.505-2.856,8.518-7.107,9.989c-2.722,0.942-4.909,3.007-6.003,5.67c-1.095,2.663-0.993,5.67,0.279,8.254
	c0.707,1.434,1.065,2.988,1.065,4.619c0,5.824-4.738,10.561-10.561,10.561c-0.228,0-0.456-0.009-0.679-0.027
	c-0.034-0.003-0.067-0.005-0.101-0.008c-5.485-0.393-9.782-5.017-9.782-10.526C12.671,342.777,15.526,338.768,19.777,337.298z
	 M-0.832,393.707c0-7.602,5.378-13.971,12.528-15.502v30.997c-2.967-0.627-5.689-2.098-7.88-4.293
	C0.82,401.912-0.832,397.934-0.832,393.707z M31.776,421.666v-2.078v-42.894c12.749-3.708,22.096-15.49,22.096-29.419
	c0-1.409-0.093-2.8-0.279-4.171c7.447-5.691,12.046-14.632,12.046-24.361c0-4.158-0.863-8.254-2.476-12.03
	c9.066-5.09,19.23-7.757,29.853-7.757c7.113,0,14.063,1.203,20.673,3.58c3.627,1.298,7.108,2.947,10.423,4.906
	c-1.412,3.559-2.152,7.383-2.152,11.301c0,9.726,4.6,18.667,12.047,24.36c-0.188,1.373-0.281,2.765-0.281,4.172
	c0,13.332,8.594,24.719,20.53,28.913v43.4v2.078c0,33.768-27.471,61.239-61.239,61.239c-16.356,0-31.737-6.369-43.308-17.931
	C38.143,453.411,31.776,438.031,31.776,421.666z M79.08,502.984h27.859v16.424H79.08V502.984z M214.951,613.265H-28.922v-18.763
	c0-30.336,24.679-55.015,55.015-55.015h133.843c30.335,0,55.015,24.679,55.015,55.015V613.265z M339.397,254.423
	c8.308,0,15.069,6.759,15.069,15.069c0,8.308-6.759,15.069-15.069,15.069c-8.309,0-15.069-6.759-15.069-15.069
	C324.328,261.182,331.089,254.423,339.397,254.423z M249.315,389.25c0-47.683,37.884-82.291,90.081-82.291
	c52.191,0,90.072,34.608,90.072,82.291c0,20.202-6.725,39.427-18.703,54.968v-50.882c0-2.688-0.157-5.429-0.465-8.149
	c-0.507-4.468-3.922-8.053-8.361-8.777c-10.984-1.791-20.582-8.322-26.333-17.92c-1.814-3.027-5.083-4.879-8.612-4.879
	s-6.798,1.852-8.612,4.879c-6.909,11.529-19.047,18.412-32.469,18.412c-13.127,0-25.125-6.661-32.094-17.818
	c-1.898-3.038-5.239-4.825-8.85-4.715c-3.579,0.119-6.825,2.137-8.514,5.295c-5.52,10.308-8.437,21.952-8.437,33.673v50.873
	C256.042,428.668,249.315,409.446,249.315,389.25z M293.102,468.352c-3.322-6.919-5.005-14.361-5.005-22.119v-52.897
	c0-3.229,0.308-6.447,0.91-9.608c10.216,8.48,23.156,13.252,36.908,13.252c15.501,0,30.3-6.333,41.056-17.105
	c6.601,6.663,14.726,11.628,23.716,14.449v51.908c0,7.754-1.683,15.199-4.999,22.128c-2.519,5.254-5.89,10.012-10.017,14.138
	c-9.697,9.688-22.579,15.023-36.275,15.023C319.762,497.523,301.593,486.075,293.102,468.352z M327.561,517.601h23.672v14.898
	h-23.672V517.601z M442.922,613.265H235.873v-14.748c0-25.331,20.607-45.939,45.939-45.939h115.17
	c25.331,0,45.939,20.608,45.939,45.939V613.265z"/>
<path style="fill:#FFFFFF;" d="M391.671,582.726h-56.22c-5.544,0-10.039,4.495-10.039,10.039c0,5.545,4.496,10.039,10.039,10.039
	h56.22c5.544,0,10.039-4.495,10.039-10.039C401.711,587.22,397.216,582.726,391.671,582.726z"/>
<path style="fill:#FFFFFF;" d="M423.797,602.804c12.919,0,12.941-20.078,0-20.078C410.877,582.726,410.855,602.804,423.797,602.804z
	"/>
</svg>
