<?xml version="1.0" encoding="iso-8859-1"?>
<!-- Generator: Adobe Illustrator 19.0.0, SVG Export Plug-In . SVG Version: 6.00 Build 0)  -->
<svg version="1.1" id="Layer_1" xmlns="http://www.w3.org/2000/svg" xmlns:xlink="http://www.w3.org/1999/xlink" x="0px" y="0px"
	 viewBox="0 0 511.998 511.998" style="enable-background:new 0 0 511.998 511.998;" xml:space="preserve">
<g>
	<g>
		<path d="M303.279,180.231c-4.204,0-7.611,3.408-7.611,7.611v17.001c0,4.203,3.407,7.611,7.611,7.611s7.611-3.408,7.611-7.611
			v-17.001C310.89,183.638,307.483,180.231,303.279,180.231z"/>
	</g>
</g>
<g>
	<g>
		<path d="M214.637,180.231c-4.203,0-7.611,3.408-7.611,7.611v17.001c0,4.203,3.408,7.611,7.611,7.611
			c4.203,0,7.611-3.408,7.611-7.611v-17.001C222.248,183.638,218.84,180.231,214.637,180.231z"/>
	</g>
</g>
<g>
	<g>
		<path d="M284.062,234.963h-47.859c-27.183,0-49.297,22.115-49.297,49.297v2.351c0,4.203,3.408,7.611,7.611,7.611h29.472
			c3.494,16.752,18.37,29.374,36.143,29.374c17.774,0,32.651-12.624,36.145-29.374h29.472c4.204,0,7.611-3.408,7.611-7.611v-2.351
			C333.36,257.078,311.245,234.963,284.062,234.963z M260.132,308.375c-9.308,0-17.244-5.903-20.319-14.153h40.639
			C277.376,302.472,269.441,308.375,260.132,308.375z M202.532,279.001c2.536-16.301,16.669-28.816,33.67-28.816h47.859
			c17.001,0,31.135,12.515,33.671,28.816H202.532z"/>
	</g>
</g>
<g>
	<g>
		<path d="M266.303,212.075h-10.797l5.162-26.385c0.808-4.125-1.882-8.123-6.007-8.93c-4.127-0.809-8.123,1.882-8.931,6.007
			l-6.937,35.457c-0.437,2.232,0.148,4.543,1.593,6.299c1.445,1.756,3.601,2.773,5.875,2.773h20.042
			c4.204,0,7.611-3.408,7.611-7.611S270.507,212.075,266.303,212.075z"/>
	</g>
</g>
<g>
	<g>
		<path d="M419.795,80.705h-30.794V29.578C389.001,13.269,375.732,0,359.422,0H150.718c-16.309,0-29.578,13.269-29.578,29.578
			v51.126H92.203c-16.309,0-29.578,13.269-29.578,29.578v25.745c0,4.203,3.408,7.611,7.611,7.611h53.12v20.748
			c-23.415,3.404-41.46,23.606-41.46,47.951c0,24.536,18.333,44.858,42.017,48.022c5.338,57.519,49.082,104.06,105.275,113.665
			v22.292h-74.555c-28.999,0-52.59,23.592-52.59,52.59c0,4.203,3.408,7.611,7.611,7.611c4.203,0,7.611-3.408,7.611-7.611
			c0-20.556,16.684-37.285,37.221-37.366v85.236h-44.831c-4.203,0-7.611,3.408-7.611,7.611c0,4.203,3.408,7.611,7.611,7.611h306.459
			c4.204,0,7.611-3.408,7.611-7.611v-55.482c0-28.999-23.592-52.59-52.59-52.59h-74.269v-24.396
			c51.263-13.067,90.192-57.314,95.325-111.267c25.041-1.855,44.853-22.808,44.853-48.315c0-25.309-19.504-46.136-44.269-48.27
			v-20.428h48.991c4.204,0,7.611-3.408,7.611-7.611v-25.745C449.374,93.974,436.105,80.705,419.795,80.705z M392.772,179.37
			c16.355,2.07,29.048,16.06,29.048,32.969c0,16.908-12.693,30.899-29.048,32.968V179.37z M136.361,29.578
			c0-7.916,6.441-14.357,14.357-14.357h208.704c7.917,0,14.357,6.441,14.357,14.357v4.03H136.361V29.578z M372.488,48.83v7.903
			H136.671V48.83H372.488z M183.003,496.779h-13.299v-85.24h13.299V496.779z M256.095,496.777h-57.871v-85.24h30.963v17.053
			c0,2.2,0.951,4.291,2.608,5.736l24.301,21.192V496.777z M244.407,425.13v-49.435c2.087,0.102,4.187,0.157,6.3,0.157h14.711
			c5.495,0,10.91-0.35,16.223-1.029v50.426h0.001l-18.068,16.596L244.407,425.13z M368.572,411.538h2.559
			c20.606,0,37.37,16.763,37.37,37.369v47.872h-39.929V411.538z M341.089,411.538h12.261v85.24h-12.261V411.538z M325.868,411.538
			v85.24h-54.551v-41.376l23.085-21.207c1.569-1.441,2.462-3.475,2.462-5.605v-17.053H325.868z M377.551,248.499L377.551,248.499
			c0,61.83-50.302,112.132-112.132,112.132h-14.711c-61.83,0-112.132-50.302-112.132-112.132c0-4.203-3.408-7.611-7.611-7.611
			c-2.941,0-5.488,1.671-6.754,4.113c-15.402-2.893-27.095-16.434-27.095-32.663c0-15.927,11.262-29.268,26.239-32.493v4.302
			c0,4.203,3.408,7.611,7.611,7.611c4.203,0,7.611-3.408,7.611-7.611V143.64h238.974V248.499z M434.152,128.418H77.846v-18.134
			c0-7.916,6.441-14.357,14.357-14.357h80.037c4.203,0,7.611-3.408,7.611-7.611c0-4.203-3.408-7.611-7.611-7.611h-35.878v-8.751
			h237.418v8.751H240.816c-4.203,0-7.611,3.408-7.611,7.611c0,4.203,3.408,7.611,7.611,7.611h178.979
			c7.917,0,14.357,6.441,14.357,14.357V128.418z"/>
	</g>
</g>
<g>
	<g>
		<path d="M229.601,151.65c-43.144-0.437-44.13-0.108-45.623,0.391c-3.987,1.329-6.142,5.64-4.812,9.627
			c1.063,3.188,4.034,5.205,7.219,5.205c0.378,0,0.757-0.028,1.138-0.086c3.191-0.188,23.767-0.099,41.925,0.084
			c4.182,0.029,7.644-3.331,7.687-7.534C237.177,155.133,233.804,151.692,229.601,151.65z"/>
	</g>
</g>
<g>
	<g>
		<path d="M330.064,151.65c-43.15-0.437-44.132-0.107-45.624,0.391c-3.988,1.33-6.142,5.641-4.811,9.628
			c1.063,3.187,4.033,5.204,7.219,5.204c0.378,0,0.757-0.028,1.138-0.086c3.191-0.188,23.767-0.099,41.924,0.084
			c4.183,0.034,7.644-3.331,7.688-7.534C337.639,155.133,334.267,151.692,330.064,151.65z"/>
	</g>
</g>
<g>
</g>
<g>
</g>
<g>
</g>
<g>
</g>
<g>
</g>
<g>
</g>
<g>
</g>
<g>
</g>
<g>
</g>
<g>
</g>
<g>
</g>
<g>
</g>
<g>
</g>
<g>
</g>
<g>
</g>
</svg>
