<?xml version="1.0" encoding="utf-8"?>
<!-- Generator: Adobe Illustrator 21.0.0, SVG Export Plug-In . SVG Version: 6.00 Build 0)  -->
<svg version="1.1" xmlns="http://www.w3.org/2000/svg" xmlns:xlink="http://www.w3.org/1999/xlink" x="0px" y="0px"
	 viewBox="0 0 483.2 474.3" style="enable-background:new 0 0 483.2 474.3;" xml:space="preserve">
<style type="text/css">
	.st0{display:none;}
	.st1{fill:#FFFFFF;}
</style>
<g id="Layer_1">
	<g>
		<path class="st0" d="M228,469.6c-14.8-3.1-29.9-5.1-44.4-9.3C80.4,430.4,12.3,332,20.1,224.9c8-109.9,93.4-198.1,203.4-210.1
			c125.2-13.6,237.4,76.9,251,202.6C488,342,398.2,453.9,273.3,468.2c-2,0.2-3.9,0.9-5.8,1.4C254.3,469.6,241.1,469.6,228,469.6z
			 M331.4,215.3c0.2-0.4,1.2-1.8,2-3.4c11.2-22.7,22.5-45.3,33.6-68c0.9-1.8,0.9-4.1,1.3-6.1c-2.6,0.1-5.5-0.6-7.6,0.4
			c-19.1,9.3-38.1,18.8-57,28.5c-1.7,0.9-3.7,3-3.9,4.6c-0.7,9.7-8.3,14.7-17.6,10.4c-2.7-1.2-5.8-4.8-6-7.6
			c-0.2-2.1,3.2-5.3,5.7-6.9c2.5-1.7,5.9-2,9.1-3c-0.5-1.7-0.5-2.8-1-3.5c-11.9-17.6-23.7-35.3-35.7-52.8c-3.6-5.2-6.9-3.7-10,0.8
			c-9.9,14.7-19.8,29.3-29.7,44c-2.3,3.5-4.5,7.1-7.2,11.4c3.8,1.2,7.2,1.4,9.3,3.1c2.6,2.1,6.2,5.9,5.8,8.3
			c-1.3,6.6-7.4,7.7-13.2,7.3c-5.6-0.4-10.3-2.2-10.9-9.2c-0.2-2.2-1.5-5.3-3.2-6.3c-18.8-10-37.7-19.7-56.6-29.2
			c-2-1-4.7-0.5-7-0.7c0.3,2.3,0.1,4.9,1,6.9c11.1,22.7,22.3,45.4,33.6,68c0.7,1.5,1.8,2.8,2,3C222.9,203.8,276.7,203.9,331.4,215.3
			z M110.2,282c17.8,28.5,35,56.1,52.5,84.1c21.1-13.2,41.6-26,62.4-38.9c-17.7-28.4-35-56.1-52.4-84.1
			C151.6,256.1,131.3,268.8,110.2,282z M253,232.1c-0.5,1.4-0.9,1.9-0.8,2.3c3.8,31.6,7.5,63.3,11.4,94.9c0.2,1.6,1.9,4.1,3.2,4.3
			c14.7,2,29.4,3.7,44.8,5.6c4.1-33.1,8.1-65.4,12.1-98.3C299.8,237.9,276.5,235,253,232.1z M258.7,330.2
			c-4.1-33-8.1-65.2-12.2-98.3c-23.4,2.9-45.9,5.7-69.6,8.6c18.6,30,36.7,59,54.7,88c-2.5,2-4.1,3.4-7.5,6.1
			C236.8,332.9,247.4,331.6,258.7,330.2z M334.7,366.1c17.6-28.3,34.8-55.9,52.4-84.1c-19.7-12.3-38.8-24.2-58.9-36.6
			c-2.2,17.8-4.2,34.1-6.2,50.4c-2,16.2-4.1,32.5-6.2,48.8c-5.6-0.5-10.4-0.9-15.1-1.3c-0.1,0.5-0.2,1-0.3,1.5
			C311.5,351.7,322.6,358.6,334.7,366.1z M327.5,222.3c-23.4-14.1-138.9-13.5-157.4,2c3.4,1.9,6.3,4.8,8.8,4.6
			c19.3-1.8,38.6-5.2,57.9-6.2c27.1-1.4,54.2-0.3,80.8,5.8C323.9,230,326.7,228.9,327.5,222.3z M260.2,370.2c-4.3-8.8,1-14,5.8-20
			c-9.1,0.9-12.9-4.6-16.7-13.5c-2.6,9.9-8,13.5-16.4,14.3c7.4,5.1,7.9,11.7,5.3,21.3C246.5,365.7,252.7,365.8,260.2,370.2z
			 M295.6,368.7c1.4-4,3-8.4,4.3-11.9c-3.6-2.6-7.3-5.3-10.5-7.7c-3.4,2.4-7.2,5.1-10.2,7.3c1.3,4.4,2.6,8.8,3.7,12.3
			C287.4,368.7,291.9,368.7,295.6,368.7z M209.7,349c-3.4,2.5-7.2,5.2-10.3,7.5c1.3,4.1,2.6,8.6,3.7,12.2c4.6,0,9.2,0,13,0
			c1.4-4.2,2.9-8.6,4.1-11.9C216.5,354,212.9,351.4,209.7,349z"/>
		<path d="M371.4,195.4c-88-18.4-174.4-18.6-262.7,0c-0.2-0.3-2-2.4-3.2-4.8c-18.1-36.4-36.1-72.8-53.9-109.3
			c-1.6-3.2-1.2-7.4-1.7-11.1c3.8,0.3,8.1-0.5,11.3,1.1c30.5,15.3,60.9,30.9,91,47c2.8,1.5,4.9,6.5,5.2,10.1
			c1,11.2,8.6,14.1,17.6,14.7c9.3,0.7,19.2-1,21.2-11.7c0.7-3.8-5.1-9.9-9.3-13.3c-3.4-2.8-8.8-3.1-15-5c4.4-6.9,7.8-12.7,11.6-18.2
			c15.9-23.6,31.9-47.2,47.8-70.8c4.9-7.3,10.4-9.7,16.1-1.3c19.3,28.2,38.3,56.6,57.3,84.9c0.8,1.2,0.9,3,1.7,5.7
			c-5.2,1.6-10.6,2.1-14.7,4.8c-4,2.6-9.6,7.7-9.2,11.1c0.5,4.5,5.3,10.2,9.7,12.2c15,6.8,27.2-1.1,28.3-16.8
			c0.2-2.7,3.5-6.1,6.2-7.5c30.4-15.5,60.9-30.9,91.6-45.8c3.4-1.6,8.1-0.5,12.2-0.6c-0.6,3.3-0.6,6.9-2,9.9
			c-17.9,36.5-35.9,72.9-54,109.3C373.3,192.5,371.7,194.8,371.4,195.4z M242.6,31.5c-1.2-0.3,6,14.7,4.8,14.4
			c-4.4,31.1-17.1,45-47.1,63.7c0.6,1.1-10.9-1.6-10.3-0.5c3.2-1.6,7.6-2.3,9.3-4.9c14.2-20.2,28-40.7,41.5-61.4
			C242.8,39.9,242.1,35.4,242.6,31.5z M113.8,184.7C115.3,183.9,112.4,185.6,113.8,184.7c-21.5-30.4-39.3-62.4-48.2-97.4
			c-1.5,0.8,1.5-0.8,0,0C81.7,119.8,97.8,152.3,113.8,184.7z M414,87.8C413.5,87,414.4,88.7,414,87.8
			c-12.1,34.6-46.1,25.4-54.9,33.3c-20.4,18.5-5,30.1-33.8,26.4c8.6-1.4,16.2-4.9,14.8-14.3c-1.1-7.9,2.7-9.9,7.9-12.5
			C370.1,109.9,392,98.8,414,87.8z M201,147.2C197.1,158.7,203.6,139.6,201,147.2c6.2-2.1,10.5-8.5,13.4-0.4
			C215.7,150.1,203.6,154.5,201,147.2z"/>
		<path d="M15.8,302.6C49.7,281.4,82.5,261,116.1,240c28.1,45,55.8,89.4,84.3,135.1c-33.4,20.8-66.3,41.4-100.3,62.6
			C72,392.7,44.3,348.3,15.8,302.6z M105.2,322.6c1.7,7.2,3.3,14.5,5.2,22.8c4.4-2.7,8.9-5.6,13.1-8.2c-6.7-5.2-12.6-9.8-18.6-14.4
			c3.6,0,7.3,0.7,10.7-0.1c6-1.3,14-1.7,17.1-5.7c3.1-4,3-12.5,1.1-17.9c-5.2-14.6-14.1-15.8-25.2-6.8c-5.1-5.4-10.8-15.5-14.8-14.8
			c-8.1,1.3-17.1,7-22.2,13.6c-2.6,3.3,2.7,12.6,4.5,19.4c-10.6,3.2-15.5,12.5-7.3,22.7c4.2,5.2,12.7,10.1,18.7,9.5
			c4.7-0.5,8.5-9.8,12.7-15C101.7,325.9,103.6,324.3,105.2,322.6z"/>
		<path d="M245.3,222.4c37.8,4.7,75.2,9.3,113.8,14.1c-6.5,52.9-12.9,104.7-19.5,158c-24.7-3-48.4-5.7-72-8.9
			c-2.1-0.3-4.9-4.4-5.2-6.9c-6.3-50.8-12.4-101.7-18.4-152.5C243.9,225.4,244.5,224.6,245.3,222.4z M311.8,248.7
			c0,0,0.2,0.3,0.2,0.3c0-0.8,0.1-1.5,0-2.3c0-0.3-0.6-0.8-0.7-0.7c-11.4,6.6-22.9,12.9-34,20c-2.2,1.4-4.1,5.8-3.7,8.5
			c1,6.1,1.7,14.8,5.7,17.1c6.1,3.5,14.8,2.6,22.7,3.5c-1.2,2.4-3.4,6.7-6.2,12.1c5.3,0.5,9.3,0.9,13.7,1.3c-1.7-6-3-10.7-4.8-17.4
			c14.6,11.4,22.5,11.9,29.5,3.6c8-9.5,6.4-19.6-4.6-29.7C323.6,259.6,317.7,254.1,311.8,248.7z"/>
		<path d="M254.4,380c-18.2,2.3-35.2,4.4-55.5,7c5.4-4.4,8.1-6.6,12-9.8c-29-46.6-58-93.2-88-141.4c38.2-4.7,74.3-9.2,111.9-13.8
			C241.5,275.1,247.9,327,254.4,380z M190.9,296.6c8.9-7.3,17.8-13.7,25.7-21.3c8.6-8.2,7.7-21.7-0.8-29.1c-7.9-6.9-17.6-5-25.9,5.3
			c-1,1.2-2.1,2.3-3.2,3.5c-7.3-6.8-15.9-12.1-23.9-5c-4.8,4.3-8.4,13.5-7.4,19.8c0.9,5.8,7.9,11.5,13.5,15.4
			C176.4,290.2,185.2,293.7,190.9,296.6z"/>
		<path d="M376.6,437.7c-19.4-12.1-37.2-23.2-55.1-34.4c0.2-0.8,0.3-1.6,0.5-2.4c7.7,0.7,15.3,1.3,24.3,2.1
			c3.3-26.2,6.7-52.3,9.9-78.5c3.3-26.2,6.4-52.4,9.9-81c32.2,20,62.9,39.2,94.6,58.9C432.6,347.9,404.9,392.3,376.6,437.7z
			 M377.1,356.6c16.4-5,31.1-9.3,45.6-14.2c2.2-0.8,5.1-4.8,4.8-6.9c-1.9-15.5-4.5-31-7.1-48.2c-16.7,5-31.8,9.3-46.6,14.4
			c-2.2,0.8-4.7,5.7-4.3,8.4C371.4,325,374.2,339.6,377.1,356.6z"/>
		<path d="M365.1,206.6c-1.4,10.5-5.8,12.3-15.9,10c-42.7-9.8-86.3-11.6-129.8-9.4c-31.1,1.6-62,7.1-93.1,10
			c-4.1,0.4-8.7-4.4-14.2-7.4C141.8,185,327.4,184,365.1,206.6z"/>
		<path d="M175.7,410.2"/>
		<path class="st1" d="M105.3,322.6c-1.7,1.7-3.6,3.3-5.1,5.2c-4.3,5.3-8,14.5-12.7,15c-6,0.6-14.5-4.3-18.7-9.5
			c-8.1-10.1-3.3-19.5,7.3-22.7c-1.8-6.8-7-16.1-4.5-19.4c5.1-6.6,14-12.3,22.2-13.6c4-0.6,9.7,9.4,14.8,14.8
			c11.2-9,20-7.8,25.2,6.8c1.9,5.4,2,13.9-1.1,17.9c-3.1,4-11.1,4.4-17.1,5.7c-3.4,0.7-7.1,0.1-10.7,0.1
			C104.9,322.9,105.3,322.6,105.3,322.6z"/>
		<path class="st1" d="M104.9,322.9c6,4.6,11.9,9.2,18.6,14.4c-4.2,2.6-8.7,5.4-13.1,8.2c-1.9-8.4-3.6-15.6-5.2-22.9
			C105.3,322.6,104.9,322.9,104.9,322.9z"/>
		<path class="st1" d="M311.8,248.7c5.9,5.5,11.8,10.9,17.7,16.4c11,10.1,12.6,20.2,4.6,29.7c-7,8.3-14.1,10.6-28.7-0.8
			c1.9,6.7,2.4,8.6,4.1,14.6c-4.3-0.4-8.4-0.8-13.7-1.3c2.8-5.4,5.6-11.3,6.8-13.6c-7.9-1-17.2,1.5-23.3-2c-4-2.3-4.7-11.1-5.7-17.1
			c-0.4-2.6,1.4-7.1,3.7-8.5C288.4,258.9,300.4,255.2,311.8,248.7c0.1-0.1,0.2-2.3,0.3-2c0.1,0.8,0,1.5,0,2.3
			c-8,4.6-15.9,9.2-23.9,13.6c-7.8,4.3-13.5,9.6-10.6,20c2.6-13.1,12.7-17.4,23.1-22.3C305.2,258.2,308.1,252.7,311.8,248.7z"/>
		<path class="st1" d="M190.9,296.6c-5.7-2.9-14.5-6.3-22-11.6c-5.6-3.9-12.6-9.6-13.5-15.4c-1-6.2,2.6-15.5,7.4-19.8
			c8-7.2,16.6-1.8,23.9,5c1.1-1.2,2.2-2.3,3.2-3.5c8.2-10.2,18-12.2,25.9-5.3c8.5,7.5,9.3,20.9,0.8,29.1
			C208.8,282.9,199.8,289.3,190.9,296.6z"/>
		<path class="st1" d="M377.1,356.6c-2.9-17-5.7-31.7-7.7-46.5c-0.4-2.7,2.1-7.6,4.3-8.4c14.8-5.1,29.9-9.3,46.6-14.4
			c2.6,17.2,5.2,32.6,7.1,48.2c0.3,2.2-2.6,6.2-4.8,6.9C408.2,347.4,393.5,351.6,377.1,356.6z M417.7,298.7
			c-0.5-1.4-0.9-2.8-1.4-4.2c-14.6,4.7-29.2,9.3-43.8,14c0.4,1.3,0.9,2.6,1.3,3.8C388.4,307.8,403,303.2,417.7,298.7z"/>
		<path d="M239.7,410.3"/>
		<path class="st1" d="M311.8,248.7c-3.7,4-6.6,9.5-11.2,11.7c-10.4,4.9-20.6,9.3-23.1,22.3c-3-10.4,2.8-15.7,10.6-20
			c8-4.5,16-9.1,23.9-13.6C312,249,311.8,248.7,311.8,248.7z"/>
		<path class="st1" d="M417.7,298.7c-14.6,4.5-29.3,9.1-43.9,13.6c-0.4-1.3-0.9-2.6-1.3-3.8c14.6-4.7,29.2-9.3,43.8-14
			C416.8,295.9,417.2,297.3,417.7,298.7z"/>
	</g>
</g>
<g id="Layer_2">
	<g>
		<g>
			<path d="M115.6,444.8c-0.9-2-0.9-4.5,0.1-7.6c7-5,10.6-7.3,17.9-11.5c2.2-1.2,3.9-1.7,5.2-1.3c1.3,0.3,2.3,1.3,3.1,2.9
				c2.5,5,3.7,7.4,6.3,12.4c0.4,0.7,0.4,1.4,0.3,2.1c-0.2,0.7-0.7,1.3-1.4,1.9c-5.8,4.2-8.6,6.4-14,11.2c-1.7,1.5-3.1,2.1-4.4,2
				c-1.3-0.1-2.2-1.1-2.9-2.9c-1.9-5.4-2.8-8.1-4.5-13.6C119,442,117.8,442.9,115.6,444.8z M130,448.3c0.3,1.1,1.1,1.3,2.3,0.6
				c3.4-1.9,5.1-2.8,8.5-4.4c0.5-0.2,0.8-0.6,1-1c0.2-0.4,0.2-0.9,0-1.3c-2-4.4-3-6.6-4.9-11c-0.3-0.6-0.7-1-1.2-1.1
				c-0.5-0.1-1.1,0.1-1.7,0.5c-3.5,2.4-5.2,3.7-8.6,6.3C127.3,441.4,128.2,443.7,130,448.3z"/>
			<path d="M145.5,423.6c-0.9-1-1.4-2.2-1.5-3.6c2.7-1.7,4-2.5,6.7-4c1-0.6,2-0.8,3-0.7c1,0.1,1.7,0.5,2.1,1.3
				c1.7,3.8,2.6,5.7,4.3,9.6c-1.6,1.6-3.7,2.9-6.2,3.9c-0.9-2.6-1.4-3.8-2.3-6.4c-0.1-0.2-0.2-0.4-0.4-0.5c-0.1-0.1-0.3-0.2-0.6-0.2
				c-0.2,0-0.5,0-0.6,0c-0.2,0-0.4,0.1-0.7,0.1C147.8,423.2,147,423.3,145.5,423.6z"/>
			<path d="M169.9,435.1c-0.5-0.9-0.9-2.1-1.1-3.4c-0.2-1.4-0.3-2.6,0-3.6c4.6-1.2,7-1.7,11.6-2.6c1.5-0.3,2.1-1.1,1.8-2.6
				c-0.8-3.9-1.1-5.8-1.9-9.8c-0.1-0.7-0.5-1.2-1.1-1.4c-0.6-0.2-1.3-0.2-2.2,0.1c-3.5,1.2-5.2,1.8-8.7,3.1
				c-0.7,0.3-1.1,0.8-1.2,1.4s0.1,1.2,0.6,1.6c0.4,0.4,0.9,0.6,1.4,0.5c3-0.5,4.5-0.7,7.4-1.1c-0.2,2.4-1.5,4.7-3.9,6.9
				c-1.7-0.2-2.6-0.3-4.4-0.4c-1.4-0.1-2.4-0.6-3.1-1.4c-0.7-0.8-1.3-1.9-1.7-3.4c-0.6-2.1-0.9-3.2-1.5-5.3
				c-0.3-0.9-0.1-1.8,0.4-2.6c0.6-0.8,1.5-1.5,2.7-1.9c5.3-1.5,7.9-2.1,13.2-3.2c1.3-0.3,2.4-0.2,3.4,0.4c1,0.5,1.7,1.5,2.1,2.8
				c1.9,5.5,2.8,8.3,4.6,13.9c0.2,0.7,0.3,1.3,0.2,1.9c-0.1,0.6-0.3,1.1-0.7,1.5c-0.3,0.4-0.7,0.8-1.1,1c-0.4,0.3-0.8,0.5-1.3,0.7
				C179.2,430.7,176,432.1,169.9,435.1z"/>
			<path d="M189.1,408.4c-1.1-5-1.7-7.5-2.7-12.6c1.2-0.8,2.5-1.5,4-1.9c1.5-0.5,3-0.8,4.6-0.9c-1.1,3.5-1.6,5.2-2.6,8.7
				c5.3-1.3,7.9-1.9,13.2-2.8c1-0.2,1.9-0.2,2.8-0.2c0.8,0.1,1.5,0.3,2.1,0.6c0.6,0.3,0.9,0.8,1.1,1.4s0,1.4-0.3,2.3
				c-3.1,8.4-4.5,12.6-6.8,21c-1.3,0.2-2.7,0.3-4.2,0.3c-1.5,0-2.7-0.3-3.5-0.8c3.2-7.4,5-11.1,9.1-18.4c0.3-0.5,0.2-0.8-0.2-1.1
				c-0.4-0.3-0.9-0.3-1.4-0.2C198.1,405.4,195.1,406.3,189.1,408.4z"/>
			<path d="M216.7,396.5c6.8-0.4,10.1-0.5,16.9-0.4c2.4,0.1,4.3,0.6,5.5,1.6c1.2,1,1.8,2.5,1.7,4.5c-0.2,5.5-0.3,8.2-0.5,13.6
				c-0.2,1.7-0.7,2.9-1.5,3.7c-0.8,0.8-1.8,1.2-3.2,1.2c-2.7,0-4.1,0.1-6.8,0.2c-0.3-0.3-0.5-0.5-0.6-0.8c-0.2-0.2-0.3-0.5-0.4-0.7
				c-0.1-0.3-0.2-0.5-0.2-0.6c0-0.2-0.1-0.4-0.1-0.9s-0.1-0.8-0.2-1c1.7-0.3,2.5-0.4,4.2-0.7c0.6-0.2,1.1-0.5,1.6-0.9
				c0.4-0.4,0.7-0.9,0.8-1.4c0.9-4.3,1.4-6.4,2.4-10.6c0.1-0.7-0.1-1.3-0.6-1.6c-0.5-0.4-1.3-0.5-2.3-0.3c-6.1,0.7-9.1,1.2-15.1,2.4
				C217,402,216.4,399.6,216.7,396.5z M220.5,429.8c-0.6-7.7-0.9-11.5-1.4-19.2c1.2-1.4,2.8-2.4,4.8-3c0.9,8,1.4,12,2.3,19.9
				C224.5,428.7,222.6,429.5,220.5,429.8z"/>
			<path d="M245.1,420c1.1-3.9,1.6-5.9,2.8-9.8c1.8-0.3,3.5-0.2,5.1,0.2c0.2,3.9,0.3,5.8,0.5,9.7C250.9,420.9,248.1,420.9,245.1,420
				z M246.2,404c-0.6-2.4-0.4-4.8,0.7-7.2c6.8-0.1,10.3,0.1,17.1,0.6c1.1,0.1,2.1,0.2,3,0.4c0.8,0.2,1.7,0.4,2.6,0.7
				c0.9,0.3,1.6,0.8,2.1,1.3c0.5,0.5,0.9,1.1,1.2,2c0.3,0.8,0.3,1.7,0.2,2.8c-0.8,7.1-1.2,10.6-2,17.6c-1.1,0.2-2.3,0.3-3.6,0.2
				c-1.3-0.1-2.5-0.3-3.7-0.8c1.4-6.4,2.1-9.7,3.6-16.1c0.3-1.2,0.1-2-0.5-2.6c-0.6-0.6-1.7-0.8-3.2-0.7
				C256.5,402.6,253,403,246.2,404z"/>
			<path d="M289.8,427.5c0.3-2,0.9-3.9,2-5.6c1,0.5,1.5,0.7,2.4,1.2c0.7,0.3,1.3,0.3,1.7,0c0.5-0.3,0.8-0.9,1-1.6
				c1.5-4.3,2.2-6.4,3.6-10.7c-1.9-0.5-2.9-0.7-4.8-1.1c0-1,0.2-2.1,0.6-3.2c0.4-1.1,1-2.1,1.6-2.9c8,2.7,11.9,4.2,19.5,7.7
				c1.6,0.7,2.7,1.7,3.2,2.7c0.5,1,0.5,2.3,0,3.7c-2.2,6.8-3.4,10.1-5.7,16.8c-2,0.5-4.3,0.3-7.1-0.7c3-6.3,4.6-9.4,7.7-15.6
				c0.3-0.7,0.5-1.4,0.3-2c-0.1-0.6-0.5-1-1.3-1.3c-4-1.4-6.1-2-10.1-3.2c-1.3,5.5-1.9,8.3-3.3,13.8c-0.3,1.2-0.8,2.1-1.6,2.7
				c-0.8,0.6-1.7,0.8-2.8,0.6C294.2,428.2,292.8,428,289.8,427.5z"/>
			<path d="M327.2,419.7c0.2-1.4,0.9-2.5,1.9-3.4c2.9,1.1,4.4,1.7,7.3,2.9c1,0.4,1.8,1.1,2.4,1.9c0.6,0.8,0.6,1.7,0.2,2.4
				c-2,3.7-3,5.5-5,9.2c-2.3-0.4-4.6-1.2-6.9-2.6c1.5-2.3,2.2-3.5,3.7-5.8c0.1-0.2,0.2-0.4,0.2-0.6c0-0.2,0-0.4-0.2-0.6
				c-0.1-0.2-0.3-0.4-0.4-0.5c-0.1-0.1-0.3-0.3-0.5-0.5C329,421.2,328.4,420.7,327.2,419.7z"/>
			<path d="M331.5,444.7c1.8-1.7,4.2-2.9,7-3.5c4.4,3,6.5,4.6,10.7,8c2.7-3.4,4.1-5,6.8-8.4c0.7-0.9,0.9-1.8,0.5-2.8
				c-0.4-1-1.3-1.9-2.7-2.7c-3.9-2.2-5.9-3.2-9.9-5.1c-0.2-2.3,0.6-4.3,2.3-6c6.3,4.3,9.4,6.5,15.4,11.4c2,1.6,3,3.1,3.3,4.4
				c0.2,1.3-0.4,2.5-1.8,3.5c-4.3,3-6.4,4.6-10.6,7.8c1.9,1.2,2.9,1.8,4.7,3c-0.7,1.7-2.1,3-4.3,3.8
				C344.7,452.1,340.4,449.5,331.5,444.7z"/>
		</g>
	</g>
</g>
</svg>
