<?xml version="1.0" encoding="iso-8859-1"?>
<!-- Generator: Adobe Illustrator 19.0.0, SVG Export Plug-In . SVG Version: 6.00 Build 0)  -->
<svg version="1.1" id="Capa_1" xmlns="http://www.w3.org/2000/svg" xmlns:xlink="http://www.w3.org/1999/xlink" x="0px" y="0px"
	 viewBox="0 0 512 512" style="enable-background:new 0 0 512 512;" xml:space="preserve">
<g>
	<g>
		<g>
			<path d="M400.004,149.333h-16v-26.417c16.458-13.229,25.167-39.375,19.688-61.604c-4.667-19.063-20.188-34.208-39.479-38.583
				c-14.125-3.208-28.021-0.833-39.625,6.271c-8.917-17.313-26.979-29-47.25-29c-17.417,0-33.334,8.583-43.125,22.188
				C220.4,8.063,201.608,0,181.338,0c-29.25,0-55.271,17-67.396,43.167c-13.771-1.875-30.917,0.792-50.813,19.75
				c-13.479,12.854-20.75,28.792-20.458,44.917c0.479,26.75,17.958,50.375,42.667,59.167v6.25c0,20.896-3.771,41.292-7.75,62.875
				l-2.271,12.521c-0.417,2.396-0.646,4.833-0.646,7.354c0,19.854,13.625,36.563,32,41.313v87.771
				c0,25.542-6.042,51.125-17.479,74.021c-2.521,5.042-3.854,10.688-3.854,16.333c0,20.167,16.396,36.563,36.563,36.563h246.875
				c20.167,0,36.563-16.396,36.563-36.563c0-5.646-1.334-11.292-3.854-16.333c-11.438-22.896-17.479-48.479-17.479-74.021V384h16
				c31.979,0,69.333-25.646,69.333-97.938v-38.792C469.338,174.979,431.983,149.333,400.004,149.333z M96.004,256
				c0-1.271,0.104-2.5,0.313-3.646L98.567,240c3.979-21.583,8.104-43.896,8.104-66.75v-14.333c0-5.083-3.583-9.438-8.542-10.458
				c-19.417-3.938-33.771-21.188-34.125-41c-0.25-13.604,8.563-24.063,13.833-29.083c11.833-11.271,20.979-14.417,28.854-14.417
				c3.958,0,7.604,0.792,11.104,1.75c5.583,1.479,11.229-1.646,12.979-7.063c7.083-22.313,27.396-37.313,50.563-37.313
				c18.896,0,36,9.875,45.75,26.417c2.188,3.708,6.458,5.75,10.625,5.146c4.271-0.583,7.75-3.646,8.875-7.813
				c3.729-13.979,16.375-23.75,30.75-23.75c15.771,0,29.313,11.854,31.5,27.583c0.583,4.167,3.563,7.604,7.625,8.771
				c4,1.208,8.396-0.167,11.104-3.396c7.958-9.479,19.813-13.5,31.917-10.771c11.333,2.583,20.771,11.771,23.5,22.875
				c3.479,14.167-2.542,32.5-12.813,40.271l-141.375,0.021c-3.042,0-5.938,1.292-7.958,3.563
				c-15.313,17.188-40.667,22.979-62.813,12.125c-5.083-2.458-11.333-0.521-14.063,4.5c-2.958,5.458-6.896,10.063-11.708,13.688
				c-2.667,2.021-4.25,5.167-4.25,8.521v24.167c0,22.854,4.125,45.167,8.104,66.75l2.25,12.313c0.208,1.188,0.313,2.417,0.313,3.688
				c0,11.771-9.563,21.333-21.333,21.333C105.567,277.333,96.004,267.771,96.004,256z M368.775,490.667H121.9
				c-8.396,0-15.229-6.833-15.229-15.229c0-2.354,0.563-4.688,1.604-6.792c12.917-25.833,19.729-54.729,19.729-83.563v-87.771
				c18.375-4.75,32-21.458,32-41.313c0-2.521-0.229-4.958-0.646-7.396l-2.271-12.479c-3.979-21.583-7.75-41.979-7.75-62.875v-19.146
				c2.979-2.688,5.688-5.646,8.125-8.875c26.688,9.333,56.333,2.021,75.896-17.229h129.313v257.083
				c0,28.833,6.813,57.729,19.729,83.563c1.042,2.104,1.604,4.438,1.604,6.792C384.004,483.833,377.171,490.667,368.775,490.667z
				 M448.004,286.063c0,47.25-18.396,76.604-48,76.604c-5.387,0-10.736-2.522-16-6.529V177.195c5.264-4.007,10.613-6.529,16-6.529
				c29.604,0,48,29.354,48,76.604V286.063z"/>
			<path d="M245.338,170.667c-5.896,0-10.667,4.771-10.667,10.667v256c0,5.896,4.771,10.667,10.667,10.667
				c5.896,0,10.667-4.771,10.667-10.667v-256C256.004,175.438,251.233,170.667,245.338,170.667z"/>
			<path d="M309.338,170.667c-5.896,0-10.667,4.771-10.667,10.667v256c0,5.896,4.771,10.667,10.667,10.667
				c5.896,0,10.667-4.771,10.667-10.667v-256C320.004,175.438,315.233,170.667,309.338,170.667z"/>
			<path d="M181.338,170.667c-5.896,0-10.667,4.771-10.667,10.667v256c0,5.896,4.771,10.667,10.667,10.667
				c5.896,0,10.667-4.771,10.667-10.667v-256C192.004,175.438,187.233,170.667,181.338,170.667z"/>
		</g>
	</g>
</g>
<g>
</g>
<g>
</g>
<g>
</g>
<g>
</g>
<g>
</g>
<g>
</g>
<g>
</g>
<g>
</g>
<g>
</g>
<g>
</g>
<g>
</g>
<g>
</g>
<g>
</g>
<g>
</g>
<g>
</g>
</svg>
