<?xml version="1.0" encoding="iso-8859-1"?>
<!-- Generator: Adobe Illustrator 19.0.0, SVG Export Plug-In . SVG Version: 6.00 Build 0)  -->
<svg xmlns="http://www.w3.org/2000/svg" xmlns:xlink="http://www.w3.org/1999/xlink" version="1.1" id="Capa_1" x="0px" y="0px" viewBox="0 0 480 480" style="enable-background:new 0 0 480 480;" xml:space="preserve" width="512px" height="512px">
<g>
	<g>
		<path d="M208,176h-52.688l-45.656-45.656c-1.5-1.5-3.534-2.344-5.656-2.344H8c-4.418,0-8,3.582-8,8v168    c0.026,22.08,17.92,39.974,40,40h48c4.418,0,8,3.582,8,8v88c0,13.255,10.745,24,24,24h16c13.255,0,24-10.745,24-24V336    c-0.035-30.913-25.087-55.965-56-56h-8v-68.688l26.344,26.344c1.5,1.5,3.534,2.344,5.656,2.344h80c17.673,0,32-14.327,32-32    S225.673,176,208,176z M208,224h-76.688l-37.656-37.656c-3.125-3.124-8.19-3.123-11.314,0.002C80.843,187.846,80,189.879,80,192    v96c0,4.418,3.582,8,8,8h16c22.08,0.026,39.974,17.92,40,40v104c0,4.418-3.582,8-8,8h-16c-4.418,0-8-3.582-8-8v-88    c0-13.255-10.745-24-24-24H40c-13.255,0-24-10.745-24-24V144h84.688l45.656,45.656c1.5,1.5,3.534,2.344,5.656,2.344h56    c8.837,0,16,7.163,16,16S216.837,224,208,224z" fill="#FFFFFF"/>
	</g>
</g>
<g>
	<g>
		<path d="M472,128h-96c-2.122,0-4.156,0.844-5.656,2.344L324.688,176H272c-17.673,0-32,14.327-32,32s14.327,32,32,32h80    c2.122,0,4.156-0.844,5.656-2.344L384,211.312V280h-8c-30.913,0.035-55.965,25.087-56,56v104c0,13.255,10.745,24,24,24h16    c13.255,0,24-10.745,24-24v-88c0-4.418,3.582-8,8-8h48c22.08-0.026,39.974-17.92,40-40V136C480,131.582,476.418,128,472,128z     M464,304c0,13.255-10.745,24-24,24h-48c-13.255,0-24,10.745-24,24v88c0,4.418-3.582,8-8,8h-16c-4.418,0-8-3.582-8-8V336    c0.026-22.08,17.92-39.974,40-40h16c4.418,0,8-3.582,8-8v-96c-0.001-4.418-3.583-7.999-8.002-7.998    c-2.121,0-4.154,0.843-5.654,2.342L348.688,224H272c-8.837,0-16-7.163-16-16s7.163-16,16-16h56c2.122,0,4.156-0.844,5.656-2.344    L379.312,144H464V304z" fill="#FFFFFF"/>
	</g>
</g>
<g>
	<g>
		<path d="M336,256H144c-4.418,0-8,3.582-8,8s3.582,8,8,8h88v176h-24c-4.418,0-8,3.582-8,8s3.582,8,8,8h64c4.418,0,8-3.582,8-8    s-3.582-8-8-8h-24V272h88c4.418,0,8-3.582,8-8S340.418,256,336,256z" fill="#FFFFFF"/>
	</g>
</g>
<g>
	<g>
		<path d="M424,16h-40c-4.418,0-8,3.582-8,8v40c0,26.51,21.49,48,48,48c26.51,0,48-21.49,48-48    C471.974,37.501,450.499,16.026,424,16z M408.331,91.939C398.216,86.284,391.964,75.588,392,64v-7.744    c21.938,1.052,42.924,9.275,59.736,23.408C443.139,95.04,423.706,100.535,408.331,91.939z M392,40.256V32h32    c17.118,0.058,31.158,13.577,31.864,30.68C437.279,49.023,415.044,41.216,392,40.256z" fill="#FFFFFF"/>
	</g>
</g>
<g>
	<g>
		<path d="M96,16H56C29.49,16,8,37.49,8,64s21.49,48,48,48c26.499-0.026,47.974-21.501,48-48V24C104,19.582,100.418,16,96,16z     M88,64c0,17.673-14.327,32-32,32c-11.516-0.042-22.115-6.285-27.736-16.336C45.076,65.531,66.062,57.308,88,56.256V64z     M88,40.256c-23.041,0.953-45.276,8.751-63.864,22.4C24.854,45.562,38.891,32.058,56,32h32V40.256z" fill="#FFFFFF"/>
	</g>
</g>
<g>
</g>
<g>
</g>
<g>
</g>
<g>
</g>
<g>
</g>
<g>
</g>
<g>
</g>
<g>
</g>
<g>
</g>
<g>
</g>
<g>
</g>
<g>
</g>
<g>
</g>
<g>
</g>
<g>
</g>
</svg>
