<?xml version="1.0" encoding="utf-8"?>
<!-- Generator: Adobe Illustrator 21.0.0, SVG Export Plug-In . SVG Version: 6.00 Build 0)  -->
<svg version="1.1" id="Capa_1" xmlns="http://www.w3.org/2000/svg" xmlns:xlink="http://www.w3.org/1999/xlink" x="0px" y="0px"
	 viewBox="0 0 512 512" style="enable-background:new 0 0 512 512;" xml:space="preserve">
<style type="text/css">
	.st0{fill:#333333;}
</style>
<g>
	<g>
		<path class="st0" d="M221.9,187.7h-56.2L117,139c-1.6-1.6-3.8-2.5-6-2.5H8.5c-4.7,0-8.5,3.8-8.5,8.5v179.2
			c0,23.6,19.1,42.6,42.7,42.7h51.2c4.7,0,8.5,3.8,8.5,8.5v93.9c0,14.1,11.5,25.6,25.6,25.6h17.1c14.1,0,25.6-11.5,25.6-25.6V358.4
			c0-33-26.8-59.7-59.7-59.7h-8.5v-73.3l28.1,28.1c1.6,1.6,3.8,2.5,6,2.5h85.3c18.9,0,34.1-15.3,34.1-34.1S240.7,187.7,221.9,187.7z
			 M221.9,238.9h-81.8l-40.2-40.2c-3.3-3.3-8.7-3.3-12.1,0c-1.6,1.6-2.5,3.8-2.5,6v102.4c0,4.7,3.8,8.5,8.5,8.5h17.1
			c23.6,0,42.6,19.1,42.7,42.7v110.9c0,4.7-3.8,8.5-8.5,8.5H128c-4.7,0-8.5-3.8-8.5-8.5v-93.9c0-14.1-11.5-25.6-25.6-25.6H42.7
			c-14.1,0-25.6-11.5-25.6-25.6V153.6h90.3l48.7,48.7c1.6,1.6,3.8,2.5,6,2.5h59.7c9.4,0,17.1,7.6,17.1,17.1
			C238.9,231.3,231.3,238.9,221.9,238.9z"/>
	</g>
</g>
<g>
	<g>
		<path class="st0" d="M503.5,136.5H401.1c-2.3,0-4.4,0.9-6,2.5l-48.7,48.7h-56.2c-18.9,0-34.1,15.3-34.1,34.1s15.3,34.1,34.1,34.1
			h85.3c2.3,0,4.4-0.9,6-2.5l28.1-28.1v73.3h-8.5c-33,0-59.7,26.8-59.7,59.7v110.9c0,14.1,11.5,25.6,25.6,25.6H384
			c14.1,0,25.6-11.5,25.6-25.6v-93.9c0-4.7,3.8-8.5,8.5-8.5h51.2c23.6,0,42.6-19.1,42.7-42.7V145.1
			C512,140.4,508.2,136.5,503.5,136.5z M494.9,324.3c0,14.1-11.5,25.6-25.6,25.6h-51.2c-14.1,0-25.6,11.5-25.6,25.6v93.9
			c0,4.7-3.8,8.5-8.5,8.5h-17.1c-4.7,0-8.5-3.8-8.5-8.5V358.4c0-23.6,19.1-42.6,42.7-42.7h17.1c4.7,0,8.5-3.8,8.5-8.5V204.8
			c0-4.7-3.8-8.5-8.5-8.5c-2.3,0-4.4,0.9-6,2.5l-40.2,40.2h-81.8c-9.4,0-17.1-7.6-17.1-17.1c0-9.4,7.6-17.1,17.1-17.1h59.7
			c2.3,0,4.4-0.9,6-2.5l48.7-48.7h90.3V324.3z"/>
	</g>
</g>
<g>
	<g>
		<path class="st0" d="M358.4,273.1H153.6c-4.7,0-8.5,3.8-8.5,8.5c0,4.7,3.8,8.5,8.5,8.5h93.9v187.7h-25.6c-4.7,0-8.5,3.8-8.5,8.5
			s3.8,8.5,8.5,8.5h68.3c4.7,0,8.5-3.8,8.5-8.5s-3.8-8.5-8.5-8.5h-25.6V290.1h93.9c4.7,0,8.5-3.8,8.5-8.5
			C366.9,276.9,363.1,273.1,358.4,273.1z"/>
	</g>
</g>
<g>
	<g>
		<path class="st0" d="M452.3,17.1h-42.7c-4.7,0-8.5,3.8-8.5,8.5v42.7c0,28.3,22.9,51.2,51.2,51.2s51.2-22.9,51.2-51.2
			C503.4,40,480.5,17.1,452.3,17.1z M435.6,98.1c-10.8-6-17.5-17.4-17.4-29.8V60c23.4,1.1,45.8,9.9,63.7,25
			C472.7,101.4,452,107.2,435.6,98.1z M418.1,42.9v-8.8h34.1c18.3,0.1,33.2,14.5,34,32.7C466.4,52.3,442.7,44,418.1,42.9z"/>
	</g>
</g>
<g>
	<g>
		<path class="st0" d="M102.4,17.1H59.7C31.5,17.1,8.5,40,8.5,68.3s22.9,51.2,51.2,51.2c28.3,0,51.2-22.9,51.2-51.2V25.6
			C110.9,20.9,107.1,17.1,102.4,17.1z M93.9,68.3c0,18.9-15.3,34.1-34.1,34.1c-12.3,0-23.6-6.7-29.6-17.4
			c17.9-15.1,40.3-23.8,63.7-25V68.3z M93.9,42.9c-24.6,1-48.3,9.3-68.1,23.9c0.8-18.2,15.7-32.6,34-32.7h34.1V42.9z"/>
	</g>
</g>
</svg>
