<?xml version="1.0" encoding="utf-8"?>
<!-- Generator: Adobe Illustrator 21.0.0, SVG Export Plug-In . SVG Version: 6.00 Build 0)  -->
<svg version="1.1" id="Layer_1" xmlns="http://www.w3.org/2000/svg" xmlns:xlink="http://www.w3.org/1999/xlink" x="0px" y="0px"
	 viewBox="0 0 200 300" style="enable-background:new 0 0 200 300;" xml:space="preserve">
<style type="text/css">
	.st0{fill:#F98D6A;}
</style>
<path class="st0" d="M47.3,35.5C47.3,35.5,47.3,35.5,47.3,35.5c0.1,0.8,0.1,1.5,0.2,2.3c0.4,3,1.5,5.9,3.1,8.3
	c0.8,1.2,1.7,2.3,2.8,3.2c1,0.9,2.1,1.7,3.4,2.4c0.3,0.2,0.7,0.3,1,0.5c0.2,0.1,0.3,0.2,0.5,0.3c0.7,0.3,1.4,0.5,2.1,0.7
	c0.2,0.1,0.4,0.1,0.6,0.1c0.6,0.1,0.9-0.7,0.4-1c-0.1-0.1-0.3-0.2-0.5-0.3c-0.5-0.3-1-0.7-1.4-1.1c-0.2-0.2-0.4-0.4-0.6-0.6
	c-0.2-0.2-0.4-0.4-0.6-0.6c-0.8-0.8-1.4-1.8-1.9-2.8c-0.5-1-0.8-2-1.1-3c-0.1-0.2-0.1-0.4-0.1-0.5c-0.1-0.3,0.2-0.6,0.6-0.6h8.2
	c3.4,0,6.1-2.7,6.1-6.1V26.1c0-3.4-2.7-6.1-6.1-6.1H53.5c-3.4,0-6.1,2.7-6.1,6.1v6.7c0,0.3,0,0.7-0.1,1c0,0.2,0,0.3,0,0.5V35.5z"/>
<path class="st0" d="M21.5,35.5C21.5,35.5,21.5,35.5,21.5,35.5c0.1,0.8,0.1,1.5,0.2,2.3c0.4,3,1.5,5.9,3.1,8.3
	c0.8,1.2,1.7,2.3,2.8,3.2c1,0.9,2.1,1.7,3.4,2.4c0.3,0.2,0.7,0.3,1,0.5c0.2,0.1,0.3,0.2,0.5,0.3c0.7,0.3,1.4,0.5,2.1,0.7
	c0.2,0.1,0.4,0.1,0.6,0.1c0.6,0.1,0.9-0.7,0.4-1c-0.1-0.1-0.3-0.2-0.5-0.3c-0.5-0.3-1-0.7-1.4-1.1c-0.2-0.2-0.4-0.4-0.6-0.6
	c-0.2-0.2-0.4-0.4-0.6-0.6c-0.8-0.8-1.4-1.8-1.9-2.8c-0.5-1-0.8-2-1.1-3c-0.1-0.2-0.1-0.4-0.1-0.5c-0.1-0.3,0.2-0.6,0.6-0.6h8.2
	c3.4,0,6.1-2.7,6.1-6.1V26.1c0-3.4-2.7-6.1-6.1-6.1H27.7c-3.4,0-6.1,2.7-6.1,6.1v6.7c0,0.3,0,0.7-0.1,1c0,0.2,0,0.3,0,0.5V35.5z"/>
<path class="st0" d="M154.2,264.5C154.2,264.5,154.2,264.5,154.2,264.5c-0.1-0.8-0.1-1.5-0.2-2.3c-0.4-3-1.5-5.9-3.1-8.3
	c-0.8-1.2-1.7-2.3-2.8-3.2c-1-0.9-2.1-1.7-3.4-2.4c-0.3-0.2-0.7-0.3-1-0.5c-0.2-0.1-0.3-0.2-0.5-0.3c-0.7-0.3-1.4-0.5-2.1-0.7
	c-0.2-0.1-0.4-0.1-0.6-0.1c-0.6-0.1-0.9,0.7-0.4,1c0.1,0.1,0.3,0.2,0.5,0.3c0.5,0.3,1,0.7,1.4,1.1c0.2,0.2,0.4,0.4,0.6,0.6
	c0.2,0.2,0.4,0.4,0.6,0.6c0.8,0.8,1.4,1.8,1.9,2.8c0.5,1,0.8,2,1.1,3c0.1,0.2,0.1,0.4,0.1,0.5c0.1,0.3-0.2,0.6-0.6,0.6h-8.2
	c-3.4,0-6.1,2.7-6.1,6.1v10.4c0,3.4,2.7,6.1,6.1,6.1H148c3.4,0,6.1-2.7,6.1-6.1v-6.7c0-0.3,0-0.7,0.1-1c0-0.2,0-0.3,0-0.5V264.5z"/>
<path class="st0" d="M180,264.5C180,264.5,180,264.5,180,264.5c-0.1-0.8-0.1-1.5-0.2-2.3c-0.4-3-1.5-5.9-3.1-8.3
	c-0.8-1.2-1.7-2.3-2.8-3.2c-1-0.9-2.1-1.7-3.4-2.4c-0.3-0.2-0.7-0.3-1-0.5c-0.2-0.1-0.3-0.2-0.5-0.3c-0.7-0.3-1.4-0.5-2.1-0.7
	c-0.2-0.1-0.4-0.1-0.6-0.1c-0.6-0.1-0.9,0.7-0.4,1c0.1,0.1,0.3,0.2,0.5,0.3c0.5,0.3,1,0.7,1.4,1.1c0.2,0.2,0.4,0.4,0.6,0.6
	c0.2,0.2,0.4,0.4,0.6,0.6c0.8,0.8,1.4,1.8,1.9,2.8c0.5,1,0.8,2,1.1,3c0.1,0.2,0.1,0.4,0.1,0.5c0.1,0.3-0.2,0.6-0.6,0.6h-8.2
	c-3.4,0-6.1,2.7-6.1,6.1v10.4c0,3.4,2.7,6.1,6.1,6.1h10.4c3.4,0,6.1-2.7,6.1-6.1v-6.7c0-0.3,0-0.7,0.1-1c0-0.2,0-0.3,0-0.5V264.5z"
	/>
</svg>
