<?xml version="1.0" encoding="utf-8"?>
<!-- Generator: Adobe Illustrator 21.0.0, SVG Export Plug-In . SVG Version: 6.00 Build 0)  -->
<svg version="1.1" id="Layer_1" xmlns="http://www.w3.org/2000/svg" xmlns:xlink="http://www.w3.org/1999/xlink" x="0px" y="0px"
	 viewBox="0 0 711.2 152" style="enable-background:new 0 0 711.2 152;" xml:space="preserve">
<g>
	<path d="M11.9,56.6c1.2-6.8,5-13.2,11.4-19.2l52.1,1c6.2,0.1,10.5,1.7,12.8,4.7c2.4,3,3.4,7.2,3.3,12.8l-1.4,44.3
		c-0.1,2.6-0.8,4.7-2.2,6.3c-1.4,1.6-3.4,2.6-6,2.9l-49.1,5.8c-6.1,0.7-10.4-0.3-12.9-3.1c-2.5-2.8-3.1-7.1-1.5-12.9l11.5-43.6
		L11.9,56.6z M36.3,92.9c-1,3.4,0.4,5.4,4,5.8l25.8,3c1.5,0.2,2.8-0.1,3.8-1c1.1-0.8,1.7-2,1.8-3.5l3.9-38.2c0.2-2.2-0.2-3.9-1.2-5
		c-1-1.1-2.5-1.6-4.4-1.4l-26.7,2.1L36.3,92.9z"/>
	<path d="M103.8,51.2c-0.9-4.3-0.6-8.4,0.8-12.4l19.5-2c2.8-0.3,5.3,0.3,7.5,1.8c2.2,1.5,3.4,3.7,3.4,6.5l0.1,33.5
		c-5.7,2.5-12.2,3.4-19.3,2.8l1.9-21.7c0-0.8,0-1.5-0.2-2c-0.2-0.6-0.6-1.1-1.1-1.5c-0.6-0.4-1-0.7-1.4-0.9c-0.4-0.2-1-0.4-1.8-0.7
		L103.8,51.2z"/>
	<path d="M150.1,117.4c-0.3-3.3,0-7.1,0.8-11.5c0.8-4.4,2.1-8,3.7-10.8l32.6,4.9c4.2,0.6,6.5-1.4,6.9-6l3.1-31.5
		c0.2-2.4-0.3-4.2-1.5-5.4s-3.1-1.8-5.6-1.8l-23.9,0.1c-2.1,0.2-3.5,1.2-4.2,3c-0.7,1.8-0.8,3.6-0.1,5.4c0.6,1.8,1.7,2.9,3.1,3.2
		l19.4,4.9c-2.6,7.2-8,12.7-16.1,16.6l-10.6-6.2c-3.3-1.9-5.4-4.5-6.3-7.7c-0.9-3.2-1.1-7.2-0.7-12l1.5-17.6
		c0.3-3.1,1.4-5.5,3.5-7.3c2.1-1.8,4.7-2.6,8-2.4l34,4.2c3.3,0.3,5.9,1.7,8,4.3c2,2.6,3.1,6.1,3.3,10.4l1.7,46.6
		c0.1,2.2-0.2,4.2-1,5.9c-0.8,1.7-1.7,3.1-3,4.1c-1.2,1-2.5,1.7-3.8,2.2c-1.3,0.5-2.7,0.8-4.1,0.9L150.1,117.4z"/>
	<path d="M222.8,55.8l1.2-41c3.3-1.6,6.9-2.5,10.7-2.9c3.8-0.3,7.6-0.2,11.5,0.3l-11,25.3l34.3-0.5c2.6,0,5,0.2,7,0.8
		c2,0.6,3.7,1.5,5.1,2.8c1.3,1.3,2.1,2.9,2.2,5c0.1,2-0.4,4.4-1.6,7.3l-28,62.5c-3.9-0.1-7.9-0.7-12.1-1.8c-4.2-1.1-7.2-2.8-9.1-5
		l34.5-51.8c0.9-1.3,0.9-2.5,0-3.5c-0.9-1-2-1.5-3.5-1.3L222.8,55.8z"/>
	<path d="M298.1,34.4l42.9,2.7c6.2,0.5,10.9,2.3,14,5.4c3.1,3.1,4.6,7.9,4.3,14.5l-1.4,43.6c-0.6,5.3-2.1,9.2-4.3,11.7
		s-5.3,3.7-9.4,3.6l-19.6-0.2c-0.7-1-1.2-1.8-1.7-2.5c-0.4-0.7-0.7-1.5-1-2.4c-0.2-0.9-0.4-1.5-0.4-2c0-0.5-0.1-1.4-0.2-2.7
		c-0.1-1.3-0.2-2.4-0.3-3.3l12.1-1.5c1.8-0.6,3.3-1.5,4.5-2.7c1.3-1.2,2.1-2.7,2.5-4.4l7.4-33.8c0.3-2.4-0.1-4.1-1.4-5.3
		s-3.3-1.6-6-1.3L300.3,58C297.2,52,296.5,44.2,298.1,34.4z M298.3,141.6l2-61.4c3.7-3.9,8.3-6.6,13.7-8.1l1.8,64.1
		C310.6,139.5,304.7,141.3,298.3,141.6z"/>
	<path d="M372,113.7l6.9-31.5c4.8-1.1,9.4-1.1,13.8-0.1l3.3,30.7C388.7,116,380.7,116.3,372,113.7z M373.8,62.5
		c-1.9-7.5-1.4-15.3,1.3-23.2l43.7-2.2c2.9-0.1,5.4-0.1,7.6,0c2.2,0.1,4.4,0.6,6.7,1.3c2.3,0.7,4.2,1.7,5.7,3.1
		c1.5,1.3,2.7,3.2,3.7,5.6c1,2.4,1.6,5.3,1.7,8.7l2.4,56.6c-3.1,1.3-6.5,2.1-10.2,2.4c-3.7,0.3-7.4,0.1-11-0.8l4-52.4
		c0.3-3.8-0.5-6.4-2.3-7.9c-1.8-1.5-4.6-1.8-8.6-1L373.8,62.5z"/>
	<path d="M502.7,116.2c-0.8-6.5-0.4-12.8,1.1-18.9l7.4,1.5c2.1,0.3,3.7-0.3,4.6-1.7c0.9-1.4,1.4-3.4,1.4-5.9l0.9-36.1l-12.6,1
		c-0.7-3.1-0.9-6.5-0.7-10.4c0.2-3.9,0.9-7.3,1.9-10.2l52.8,3.1c4.5,0.3,7.9,1.6,10.1,4.1c2.2,2.4,3.4,6,3.8,10.7l4,56.6
		c-4.4,4.1-10.9,6.3-19.2,6.7l3.7-55.3c0.1-2.5-0.2-4.6-1.1-6.2c-0.9-1.6-2.3-2.4-4.2-2.3L529,54.1l3.5,45.3
		c0.3,3.8-0.3,7.1-1.8,9.8c-1.4,2.7-3.8,4.2-7,4.7L502.7,116.2z"/>
	<path d="M590.2,51.2c-0.9-4.3-0.6-8.4,0.8-12.4l19.5-2c2.8-0.3,5.3,0.3,7.5,1.8c2.2,1.5,3.4,3.7,3.4,6.5l0.1,33.5
		c-5.7,2.5-12.2,3.4-19.3,2.8l1.9-21.7c0-0.8,0-1.5-0.2-2c-0.2-0.6-0.6-1.1-1.1-1.5c-0.6-0.4-1-0.7-1.4-0.9c-0.4-0.2-1-0.4-1.8-0.7
		L590.2,51.2z"/>
	<path d="M630.9,116.2c2.2-7.6,6.1-14.6,11.9-20.9l35.9,2.7l2-34.3c0.2-3.6-0.8-6.4-3-8.4c-2.2-2-5.3-2.7-9.3-2.3l-27.9,3
		c-3.4-6.2-4.2-12.9-2.6-20.2l46.9,3.8c6.2,0.5,10.4,2.2,12.8,5.1c2.4,2.9,2.9,7.1,1.6,12.6l-9.9,40l14.9-1.3
		c1.4,5.7,0.4,11.7-2.8,18L630.9,116.2z"/>
</g>
</svg>
